<?xml version="1.0" encoding="utf-8"?>
<!-- Generator: Adobe Illustrator 25.0.0, SVG Export Plug-In . SVG Version: 6.00 Build 0)  -->
<svg version="1.1" id="Layer_1" xmlns="http://www.w3.org/2000/svg" xmlns:xlink="http://www.w3.org/1999/xlink" x="0px" y="0px"
	 viewBox="0 0 612 792" style="enable-background:new 0 0 612 792;" xml:space="preserve">
<style type="text/css">
	.st0{fill:#419DD7;}
	.st1{fill:#FFFFFF;}
	.st2{display:none;}
	.st3{display:inline;}
	.st4{fill:#F0E77B;}
	.st5{fill:#F1F2F2;}
	.st6{display:inline;fill:#F0E77B;}
</style>
<g>
	<g>
		<path class="st0" d="M173.12,412.34c-1.58,0.18-3.33,0.18-4.91,0.18c-40.16,0-71.72-31.22-71.72-69.8
			c0-38.41,31.57-69.44,71.72-69.44c39.81,0,71.55,31.04,71.55,69.27c0,23.85-13.68,45.07-33.67,56.29l31.22-0.42v13.92H173.12z
			 M114.55,342.55c0,28.94,24.03,53.66,53.66,53.66s53.49-24.73,53.49-53.66c0-28.23-23.85-52.96-53.49-52.96
			S114.55,314.31,114.55,342.55z"/>
	</g>
</g>
<g>
	<g>
		<path d="M301.19,412.37c-9.89,0-18.21-4.61-23.49-11.58v9.22h-10.12v-87.67h10.57v40.35c5.28-6.74,13.6-11.24,23.04-11.24
			c16.75,0,29.11,14.16,29.11,30.46C330.3,398.54,317.94,412.37,301.19,412.37z M298.61,402.93c11.91,0,20.57-9.89,20.57-21.02
			c0-11.24-8.65-21.02-20.57-21.02c-11.8,0-20.68,9.89-20.68,21.13C277.92,393.03,286.8,402.93,298.61,402.93z"/>
	</g>
	<g>
		<path d="M381.9,385.5l-6.18,5.85v21.02h-10.57v-87.67h10.57v53.61l23.94-22.14h13.6l-23.72,22.48l25.4,33.72h-13.04L381.9,385.5z"
			/>
	</g>
	<g>
		<path d="M444.75,413.01c-19.45,0-32.37-13.6-32.37-30.91c0-17.08,12.59-30.91,30.46-30.91c16.75,0,30.12,13.15,30.12,30.24v2.58
			h-49.34c0.79,12.03,8.99,20.12,21.13,20.12c8.88,0,15.74-3.6,21.02-8.54l6.07,6.86C465.88,408.29,456.66,413.01,444.75,413.01z
			 M424.18,375.81h37.2c-2.14-9.22-9.22-15.62-18.55-15.62C433.39,360.18,426.31,366.36,424.18,375.81z"/>
	</g>
	<g>
		<path d="M508.52,354.79v9.67c-3.93-2.14-7.87-3.37-11.35-3.37c-5.06,0-8.43,2.36-8.43,5.96c0,2.58,2.7,4.83,9.55,9.22
			c13.15,8.32,16.64,13.38,16.64,19.9c0,9.44-7.76,15.62-19.89,15.74c-5.28,0-11.91-1.8-16.41-4.05v-9.67
			c5.62,3.03,11.46,4.72,15.17,4.72c6.74-0.11,9.89-3.15,9.89-6.86c0-2.25-1.24-5.17-11.58-11.58c-11.35-7.31-14.5-11.02-14.5-17.98
			c0-6.63,5.51-14.16,18.77-14.16C501.1,352.31,505.26,353.33,508.52,354.79z"/>
	</g>
</g>
<g>
	<g>
		<path d="M338.2,412.8c-0.46,0.02-0.92-0.02-1.39-0.12c-2.93-0.64-4.79-3.54-4.15-6.48l11.07-50.52c0.64-2.93,3.54-4.79,6.48-4.15
			c2.93,0.64,4.79,3.54,4.15,6.48l-11.07,50.52C342.74,410.99,340.61,412.7,338.2,412.8z"/>
	</g>
</g>
<g>
	<g>
		<circle cx="351.14" cy="347.27" r="6.95"/>
	</g>
	<g>
		<path d="M351.65,359.65c-1.04,0.04-2.1-0.05-3.16-0.28c-3.23-0.71-5.99-2.63-7.78-5.42c-1.78-2.79-2.38-6.1-1.67-9.33
			c0.71-3.23,2.63-6,5.42-7.78c2.79-1.79,6.1-2.38,9.33-1.67c6.67,1.46,10.91,8.08,9.45,14.75l0,0
			C362.01,355.53,357.13,359.42,351.65,359.65z M357.93,348.76L357.93,348.76L357.93,348.76z M351.07,345.76
			c-0.32,0.01-0.57,0.13-0.74,0.24c-0.24,0.15-0.55,0.44-0.66,0.95c-0.11,0.5,0.05,0.9,0.2,1.14c0.15,0.24,0.44,0.55,0.95,0.66
			c0.81,0.18,1.62-0.34,1.8-1.15l0,0c0.18-0.81-0.34-1.62-1.15-1.8C351.32,345.77,351.19,345.76,351.07,345.76z"/>
	</g>
</g>
<g>
	<g>
		<path class="st1" d="M355.39,349.31l-8.97-1.97c-0.42-0.09-0.68-0.5-0.59-0.92l3.43-15.66c0.09-0.42,0.5-0.68,0.92-0.59l8.97,1.97
			c0.42,0.09,0.68,0.5,0.59,0.92l-3.43,15.66C356.22,349.13,355.81,349.4,355.39,349.31z"/>
	</g>
	<g>
		<path class="st1" d="M355.68,350.25c-0.14,0.01-0.28-0.01-0.41-0.04l-9.11-2c-0.87-0.19-1.42-1.05-1.23-1.92l3.46-15.8
			c0.09-0.42,0.34-0.78,0.7-1.01c0.36-0.23,0.79-0.31,1.21-0.22l9.11,2c0.42,0.09,0.78,0.34,1.01,0.7c0.23,0.36,0.31,0.79,0.22,1.21
			l-3.46,15.8c-0.09,0.42-0.34,0.78-0.7,1.01C356.24,350.15,355.96,350.23,355.68,350.25z M355.66,348.44L355.66,348.44
			L355.66,348.44z M346.75,346.48l8.71,1.91l3.37-15.4l-8.71-1.91L346.75,346.48z"/>
	</g>
</g>
<g>
	<g>
		<circle class="st1" cx="338.2" cy="406.29" r="3.36"/>
	</g>
</g>
<g>
	<g>
		<g>
			<g>
				<g>
					<circle cx="168.13" cy="342.9" r="57.53"/>
				</g>
			</g>
			<g class="st2">
				<g class="st3">
					<path class="st4" d="M168.13,400.89c-31.98,0-57.99-26.02-57.99-57.99c0-31.98,26.02-57.99,57.99-57.99
						c31.98,0,57.99,26.02,57.99,57.99C226.12,374.87,200.1,400.89,168.13,400.89z M168.13,285.83c-31.47,0-57.07,25.6-57.07,57.07
						c0,31.47,25.6,57.07,57.07,57.07c31.47,0,57.07-25.6,57.07-57.07C225.19,311.43,199.59,285.83,168.13,285.83z"/>
				</g>
			</g>
		</g>
		<g>
			<g>
				<g>
					<g>
						<polygon class="st5" points="182.74,395.6 164.55,333.02 166.75,332.39 184.94,394.97 						"/>
						<path class="st5" d="M182.22,396.54l-18.62-64.05l3.67-1.05l18.62,64.05L182.22,396.54z M165.5,333.54l17.76,61.11l0.72-0.21
							l-17.76-61.11L165.5,333.54z"/>
					</g>
				</g>
			</g>
		</g>
		<g>
			<g>
				<g>
					<g>
						
							<rect x="115.99" y="355.17" transform="matrix(0.9025 -0.4306 0.4306 0.9025 -139.4087 96.6659)" class="st5" width="55.72" height="2.28"/>
					</g>
				</g>
			</g>
		</g>
		<g>
			<g>
				<g>
					<g>
						
							<rect x="122.86" y="364.06" transform="matrix(0.7432 -0.669 0.669 0.7432 -205.9515 193.7544)" class="st5" width="53.19" height="2.28"/>
					</g>
				</g>
			</g>
		</g>
		<g>
			<g>
				<g>
					<g>
						<path class="st5" d="M151.77,339.71c-3.47,0-5.33-1.49-7.4-3.55c-2.13-2.11-4.33-4.3-11.05-4.6l0.14-3.04
							c7.89,0.36,10.76,3.2,13.06,5.48c2.26,2.25,3.76,3.73,10.54,1.7c0.23-0.07,0.47-0.17,0.7-0.28l12.6-6.33
							c0.22-0.11,0.43-0.24,0.62-0.38c5.73-4.19,5.45-6.28,5.02-9.44c-0.43-3.21-0.97-7.21,3.51-13.72l2.51,1.73
							c-3.82,5.54-3.4,8.61-3,11.59c0.57,4.26,0.45,7.42-6.24,12.31c-0.32,0.24-0.68,0.45-1.05,0.64l-12.6,6.33
							c-0.39,0.2-0.79,0.36-1.2,0.48C155.39,339.37,153.4,339.71,151.77,339.71z"/>
					</g>
				</g>
			</g>
		</g>
		<g>
			<g>
				<g>
					<g>
						<path class="st5" d="M122.1,328.07l0.15,2.17c0,0,0.08,1.87,1.42,0.48c0,0,0.71-0.89,0.91,0.33c0,0,0.44,1.12,1.57-0.07
							c0.99-1.04,1.23,0.09,1.28,0.38c0.01,0.05,0.03,0.1,0.05,0.15c0.13,0.22,0.52,0.74,0.93-0.01c0.51-0.92,0.91-1.14,1.34-0.1
							c0.43,1.04,1.37,0.54,1.49-0.23c0,0,0.38-1.07,1.05,0.04c0.04,0.06,0.06,0.12,0.08,0.19l0.09,0.31
							c0.07,0.25,0.35,0.38,0.59,0.28l1.09-0.48l0.39-2.89l-12.29-1.33"/>
					</g>
				</g>
			</g>
		</g>
		<g>
			<g>
				<g>
					<g>
						<path class="st5" d="M186.27,296.48l1.54,1.44c0,0,1.35,1.2-0.51,1.36c0,0-1.09-0.01-0.31,0.89c0,0,0.57,1.01-1.01,1.14
							c-1.38,0.11-0.68,0.98-0.49,1.19c0.04,0.04,0.06,0.08,0.08,0.13c0.08,0.23,0.24,0.84-0.57,0.69c-1-0.18-1.41-0.01-0.9,0.95
							c0.52,0.96-0.43,1.36-1.08,0.98c0,0-1.04-0.37-0.61,0.82c0.02,0.06,0.05,0.12,0.09,0.17l0.18,0.25
							c0.15,0.21,0.08,0.49-0.15,0.61l-1.02,0.53l-2.4-1.47l6.49-10.04"/>
					</g>
				</g>
			</g>
		</g>
		<g>
			<g>
				<g>
					<path class="st5" d="M168.13,398.73c-30.78,0-55.83-25.04-55.83-55.83c0-30.78,25.04-55.83,55.83-55.83
						c30.78,0,55.83,25.04,55.83,55.83C223.95,373.68,198.91,398.73,168.13,398.73z M168.13,288.92
						c-29.76,0-53.98,24.21-53.98,53.98c0,29.76,24.21,53.98,53.98,53.98c29.76,0,53.98-24.21,53.98-53.98
						C222.11,313.13,197.89,288.92,168.13,288.92z"/>
				</g>
			</g>
		</g>
		<g class="st2">
			<path class="st6" d="M151.61,395.61c4-17.47,19.66-30.55,38.32-30.55c8.84,0,17,2.93,23.57,7.87l3.39-6.05
				c-7.59-5.48-16.9-8.71-26.96-8.71c-21.62,0-39.81,14.93-44.83,35.02L151.61,395.61z"/>
			<path class="st6" d="M151.89,396.12l-7.24-2.69l0.08-0.33c5.19-20.79,23.78-35.31,45.21-35.31c9.81,0,19.21,3.04,27.18,8.79
				l0.28,0.2l-3.77,6.73l-0.35-0.26c-6.78-5.1-14.86-7.79-23.34-7.79c-17.98,0-33.94,12.72-37.95,30.25L151.89,396.12z
				 M145.55,392.95l5.78,2.15c4.25-17.65,20.41-30.42,38.59-30.42c8.51,0,16.61,2.66,23.45,7.69l3.01-5.37
				c-7.78-5.52-16.92-8.44-26.46-8.44C168.97,358.55,150.78,372.68,145.55,392.95z"/>
		</g>
	</g>
	<path class="st5" d="M150.48,395.1c3.4-18.96,20.38-33.04,40.16-32.26c9.33,0.37,17.78,3.98,24.3,9.71l4.05-6.95
		c-7.67-6.31-17.38-10.26-28.04-10.68c-23.3-0.92-43.37,15.31-48,37.41L150.48,395.1z"/>
</g>
</svg>
