<?xml version="1.0" encoding="utf-8"?>
<!-- Generator: Adobe Illustrator 25.0.0, SVG Export Plug-In . SVG Version: 6.00 Build 0)  -->
<svg version="1.1" id="Layer_1" xmlns="http://www.w3.org/2000/svg" xmlns:xlink="http://www.w3.org/1999/xlink" x="0px" y="0px"
	 viewBox="0 0 612 792" style="enable-background:new 0 0 612 792;" xml:space="preserve">
<style type="text/css">
	.st0{fill:#419DD7;}
	.st1{fill:#FFFFFF;}
	.st2{display:none;}
	.st3{display:inline;}
	.st4{fill:#F0E77B;}
	.st5{fill:#F1F2F2;}
	.st6{display:inline;fill:#F0E77B;}
</style>
<rect x="0.56" y="0.03" width="612" height="792"/>
<g>
	<g>
		<path class="st1" d="M160.92,385.43c-1.58,0.18-3.33,0.18-4.91,0.18c-40.16,0-71.72-31.22-71.72-69.8
			c0-38.41,31.57-69.44,71.72-69.44c39.81,0,71.55,31.04,71.55,69.27c0,23.85-13.68,45.07-33.67,56.29l31.22-0.42v13.92H160.92z
			 M102.35,315.63c0,28.94,24.03,53.66,53.66,53.66s53.49-24.73,53.49-53.66c0-28.23-23.85-52.96-53.49-52.96
			S102.35,287.4,102.35,315.63z"/>
	</g>
</g>
<g>
	<g>
		<path class="st1" d="M288.58,388.1c-9.89,0-18.21-4.61-23.49-11.58v9.22h-10.12v-87.67h10.57v40.35
			c5.28-6.74,13.6-11.24,23.04-11.24c16.75,0,29.11,14.16,29.11,30.46C317.69,374.27,305.33,388.1,288.58,388.1z M286,378.66
			c11.91,0,20.57-9.89,20.57-21.02c0-11.24-8.65-21.02-20.57-21.02c-11.8,0-20.68,9.89-20.68,21.13
			C265.31,368.77,274.19,378.66,286,378.66z"/>
	</g>
	<g>
		<path class="st1" d="M369.29,361.23l-6.18,5.85v21.02h-10.57v-87.67h10.57v53.61l23.94-22.14h13.6l-23.72,22.48l25.4,33.72H389.3
			L369.29,361.23z"/>
	</g>
	<g>
		<path class="st1" d="M432.14,388.74c-19.45,0-32.37-13.6-32.37-30.91c0-17.08,12.59-30.91,30.46-30.91
			c16.75,0,30.12,13.15,30.12,30.24v2.58H411c0.79,12.03,8.99,20.12,21.13,20.12c8.88,0,15.74-3.6,21.02-8.54l6.07,6.86
			C453.27,384.02,444.05,388.74,432.14,388.74z M411.57,351.54h37.2c-2.14-9.22-9.22-15.62-18.55-15.62
			C420.78,335.91,413.7,342.1,411.57,351.54z"/>
	</g>
	<g>
		<path class="st1" d="M495.9,330.52v9.67c-3.93-2.14-7.87-3.37-11.35-3.37c-5.06,0-8.43,2.36-8.43,5.96c0,2.58,2.7,4.83,9.55,9.22
			c13.15,8.32,16.64,13.38,16.64,19.9c0,9.44-7.76,15.62-19.89,15.74c-5.28,0-11.91-1.8-16.41-4.05v-9.67
			c5.62,3.03,11.46,4.72,15.17,4.72c6.74-0.11,9.89-3.15,9.89-6.86c0-2.25-1.24-5.17-11.58-11.58c-11.35-7.31-14.5-11.02-14.5-17.98
			c0-6.63,5.51-14.16,18.77-14.16C488.49,328.05,492.64,329.06,495.9,330.52z"/>
	</g>
</g>
<g>
	<g>
		<path class="st1" d="M324.96,388.73c-0.46,0.02-0.92-0.02-1.39-0.12c-2.93-0.64-4.79-3.54-4.15-6.48l11.07-50.52
			c0.64-2.93,3.54-4.79,6.48-4.15c2.93,0.64,4.79,3.54,4.15,6.48l-11.07,50.52C329.5,386.93,327.37,388.64,324.96,388.73z"/>
	</g>
</g>
<g>
	<g>
		<circle class="st1" cx="337.9" cy="323.21" r="6.95"/>
	</g>
	<g>
		<path class="st1" d="M338.41,335.59c-1.04,0.04-2.1-0.05-3.16-0.28c-3.23-0.71-5.99-2.63-7.78-5.42c-1.78-2.79-2.38-6.1-1.67-9.33
			c0.71-3.23,2.63-6,5.42-7.78c2.79-1.79,6.1-2.38,9.33-1.67c6.67,1.46,10.91,8.08,9.45,14.75l0,0
			C348.77,331.47,343.89,335.36,338.41,335.59z M344.69,324.7L344.69,324.7L344.69,324.7z M337.83,321.7
			c-0.32,0.01-0.57,0.13-0.74,0.24c-0.24,0.15-0.55,0.44-0.66,0.95c-0.11,0.5,0.05,0.9,0.2,1.14c0.15,0.24,0.44,0.55,0.95,0.66
			c0.81,0.18,1.62-0.34,1.8-1.15l0,0c0.18-0.81-0.34-1.62-1.15-1.8C338.08,321.7,337.95,321.69,337.83,321.7z"/>
	</g>
</g>
<g>
	<g>
		<path d="M342.15,325.25l-8.97-1.97c-0.42-0.09-0.68-0.5-0.59-0.92l3.43-15.66c0.09-0.42,0.5-0.68,0.92-0.59l8.97,1.97
			c0.42,0.09,0.68,0.5,0.59,0.92l-3.43,15.66C342.98,325.07,342.57,325.34,342.15,325.25z"/>
	</g>
	<g>
		<path d="M342.44,326.18c-0.14,0.01-0.28-0.01-0.41-0.04l-9.11-2c-0.87-0.19-1.42-1.05-1.23-1.92l3.46-15.8
			c0.09-0.42,0.34-0.78,0.7-1.01c0.36-0.23,0.79-0.31,1.21-0.22l9.11,2c0.42,0.09,0.78,0.34,1.01,0.7c0.23,0.36,0.31,0.79,0.22,1.21
			l-3.46,15.8c-0.09,0.42-0.34,0.78-0.7,1.01C343,326.08,342.72,326.17,342.44,326.18z M342.42,324.37L342.42,324.37L342.42,324.37z
			 M333.51,322.42l8.71,1.91l3.37-15.4l-8.71-1.91L333.51,322.42z"/>
	</g>
</g>
<g>
	<g>
		<circle cx="324.96" cy="382.23" r="3.36"/>
	</g>
</g>
<g>
	<g>
		<g>
			<g>
				<g>
					<circle class="st1" cx="155.92" cy="315.98" r="57.53"/>
				</g>
			</g>
			<g class="st2">
				<g class="st3">
					<path class="st4" d="M155.92,373.98c-31.98,0-57.99-26.02-57.99-57.99c0-31.98,26.02-57.99,57.99-57.99
						c31.98,0,57.99,26.02,57.99,57.99C213.92,347.96,187.9,373.98,155.92,373.98z M155.92,258.92c-31.47,0-57.07,25.6-57.07,57.07
						c0,31.47,25.6,57.07,57.07,57.07c31.47,0,57.07-25.6,57.07-57.07C212.99,284.52,187.39,258.92,155.92,258.92z"/>
				</g>
			</g>
		</g>
		<g>
			<g>
				<g>
					<g>
						<polygon points="170.54,368.68 152.35,306.1 154.55,305.48 172.74,368.06 						"/>
						<path d="M170.02,369.63l-18.62-64.05l3.67-1.05l18.62,64.05L170.02,369.63z M153.3,306.63l17.76,61.11l0.72-0.21l-17.76-61.11
							L153.3,306.63z"/>
					</g>
				</g>
			</g>
		</g>
		<g>
			<g>
				<g>
					<g>
						
							<rect x="103.78" y="328.25" transform="matrix(0.9025 -0.4306 0.4306 0.9025 -129.0083 88.7885)" width="55.72" height="2.28"/>
					</g>
				</g>
			</g>
		</g>
		<g>
			<g>
				<g>
					<g>
						
							<rect x="110.66" y="337.14" transform="matrix(0.7432 -0.669 0.669 0.7432 -191.0779 178.6803)" width="53.19" height="2.28"/>
					</g>
				</g>
			</g>
		</g>
		<g>
			<g>
				<g>
					<g>
						<path d="M139.57,312.79c-3.47,0-5.33-1.49-7.4-3.55c-2.13-2.11-4.33-4.3-11.05-4.6l0.14-3.04c7.89,0.36,10.76,3.2,13.06,5.48
							c2.26,2.25,3.76,3.73,10.54,1.7c0.23-0.07,0.47-0.17,0.7-0.28l12.6-6.33c0.22-0.11,0.43-0.24,0.62-0.38
							c5.73-4.19,5.45-6.28,5.02-9.44c-0.43-3.21-0.97-7.21,3.51-13.72l2.51,1.73c-3.82,5.54-3.4,8.61-3,11.59
							c0.57,4.26,0.45,7.42-6.24,12.31c-0.32,0.24-0.68,0.45-1.05,0.64l-12.6,6.33c-0.39,0.2-0.79,0.36-1.2,0.48
							C143.19,312.46,141.2,312.79,139.57,312.79z"/>
					</g>
				</g>
			</g>
		</g>
		<g>
			<g>
				<g>
					<g>
						<path d="M109.9,301.16l0.15,2.17c0,0,0.08,1.87,1.42,0.48c0,0,0.71-0.89,0.91,0.33c0,0,0.44,1.12,1.57-0.07
							c0.99-1.04,1.23,0.09,1.28,0.38c0.01,0.05,0.03,0.1,0.05,0.15c0.13,0.22,0.52,0.74,0.93-0.01c0.51-0.92,0.91-1.14,1.34-0.1
							c0.43,1.04,1.37,0.54,1.49-0.23c0,0,0.38-1.07,1.05,0.04c0.04,0.06,0.06,0.12,0.08,0.19l0.09,0.31
							c0.07,0.25,0.35,0.38,0.59,0.28l1.09-0.48l0.39-2.89l-12.29-1.33"/>
					</g>
				</g>
			</g>
		</g>
		<g>
			<g>
				<g>
					<g>
						<path d="M174.07,269.56l1.54,1.44c0,0,1.35,1.2-0.51,1.36c0,0-1.09-0.01-0.31,0.89c0,0,0.57,1.01-1.01,1.14
							c-1.38,0.11-0.68,0.98-0.49,1.19c0.04,0.04,0.06,0.08,0.08,0.13c0.08,0.23,0.24,0.84-0.57,0.69c-1-0.18-1.41-0.01-0.9,0.95
							c0.52,0.96-0.43,1.36-1.08,0.98c0,0-1.04-0.37-0.61,0.82c0.02,0.06,0.05,0.12,0.09,0.17l0.18,0.25
							c0.15,0.21,0.08,0.49-0.15,0.61l-1.02,0.53l-2.4-1.47l6.49-10.04"/>
					</g>
				</g>
			</g>
		</g>
		<g>
			<g>
				<g>
					<path d="M155.92,371.81c-30.78,0-55.83-25.04-55.83-55.83c0-30.78,25.04-55.83,55.83-55.83c30.78,0,55.83,25.04,55.83,55.83
						C211.75,346.77,186.71,371.81,155.92,371.81z M155.92,262c-29.76,0-53.98,24.21-53.98,53.98c0,29.76,24.21,53.98,53.98,53.98
						c29.76,0,53.98-24.21,53.98-53.98C209.9,286.22,185.69,262,155.92,262z"/>
				</g>
			</g>
		</g>
		<g class="st2">
			<path class="st6" d="M139.41,368.69c4-17.47,19.66-30.55,38.32-30.55c8.84,0,17,2.93,23.57,7.87l3.39-6.05
				c-7.59-5.48-16.9-8.71-26.96-8.71c-21.62,0-39.81,14.93-44.83,35.02L139.41,368.69z"/>
			<path class="st6" d="M139.68,369.21l-7.24-2.69l0.08-0.33c5.19-20.79,23.78-35.31,45.21-35.31c9.81,0,19.21,3.04,27.18,8.79
				l0.28,0.2l-3.77,6.73l-0.35-0.26c-6.78-5.1-14.86-7.79-23.34-7.79c-17.98,0-33.94,12.72-37.95,30.25L139.68,369.21z
				 M133.35,366.03l5.78,2.15c4.25-17.65,20.41-30.42,38.59-30.42c8.51,0,16.61,2.66,23.45,7.69l3.01-5.37
				c-7.78-5.52-16.92-8.44-26.46-8.44C156.77,331.64,138.57,345.77,133.35,366.03z"/>
		</g>
	</g>
	<path d="M138.28,368.18c3.4-18.96,20.38-33.04,40.16-32.26c9.33,0.37,17.78,3.98,24.3,9.71l4.05-6.95
		c-7.67-6.31-17.38-10.26-28.04-10.68c-23.3-0.92-43.37,15.31-48,37.41L138.28,368.18z"/>
</g>
</svg>
