<svg id="Layer_1" data-name="Layer 1" xmlns="http://www.w3.org/2000/svg" viewBox="0 0 418.02 142.38"><defs><style>.cls-1{fill:#fff;}</style></defs><path class="cls-1" d="M301.28,192.79a29.11,29.11,0,0,1-23.49-11.58v9.22H267.67V102.76h10.57v40.35a29.26,29.26,0,0,1,23-11.24c16.75,0,29.11,14.16,29.11,30.46C330.39,179,318,192.79,301.28,192.79Zm-2.58-9.44c11.91,0,20.57-9.89,20.57-21s-8.65-21-20.57-21S278,151.2,278,162.44A20.87,20.87,0,0,0,298.7,183.35Z" transform="translate(-96.99 -51.06)"/><path class="cls-1" d="M382,165.93l-6.18,5.85v21H365.24V105.12h10.57v53.61l23.94-22.14h13.6l-23.72,22.48L415,192.79H402Z" transform="translate(-96.99 -51.06)"/><path class="cls-1" d="M444.84,193.44c-19.45,0-32.37-13.6-32.37-30.91,0-17.08,12.59-30.91,30.46-30.91a29.86,29.86,0,0,1,30.12,30.24v2.58H423.7c.79,12,9,20.12,21.13,20.12a30,30,0,0,0,21-8.54l6.07,6.86C466,188.72,456.75,193.44,444.84,193.44Zm-20.57-37.21h37.2c-2.14-9.22-9.22-15.62-18.55-15.62S426.4,146.79,424.27,156.23Z" transform="translate(-96.99 -51.06)"/><path class="cls-1" d="M508.6,135.21v9.67a24.55,24.55,0,0,0-11.35-3.37c-5.06,0-8.43,2.36-8.43,6,0,2.58,2.7,4.83,9.55,9.22C511.52,165,515,170.07,515,176.59c0,9.44-7.76,15.62-19.89,15.74a40.6,40.6,0,0,1-16.41-4.05v-9.67c5.62,3,11.46,4.72,15.17,4.72,6.74-.11,9.89-3.15,9.89-6.86,0-2.25-1.24-5.17-11.58-11.58-11.35-7.31-14.5-11-14.5-18,0-6.63,5.51-14.16,18.77-14.16A29.7,29.7,0,0,1,508.6,135.21Z" transform="translate(-96.99 -51.06)"/><path class="cls-1" d="M359,118.82l-2.36,10.78a1.59,1.59,0,0,1-.7,1,1.48,1.48,0,0,1-.8.27,1.39,1.39,0,0,1-.41,0l-9.11-2a1.61,1.61,0,0,1-1.23-1.92l2.36-10.79a12.61,12.61,0,0,0-2.83,1.34,12.38,12.38,0,0,0-3.75,17.11,12.14,12.14,0,0,0,2.74,3l-10.79,49.24a5.44,5.44,0,0,0,10.63,2.33l10.79-49.24a12.36,12.36,0,0,0,5.46-21.1Zm-21.34,71.47a3.36,3.36,0,1,1,3.36-3.36A3.36,3.36,0,0,1,337.66,190.29Z" transform="translate(-96.99 -51.06)"/><path class="cls-1" d="M171.65,136.22l-2.6-8.92-36.86,33.17a54.2,54.2,0,0,0,11.63,8.13A47.26,47.26,0,0,1,171.65,136.22Z" transform="translate(-96.99 -51.06)"/><path class="cls-1" d="M151.22,171.76a53.73,53.73,0,0,0,31.09,1.13l-8.44-29A39.33,39.33,0,0,0,151.22,171.76Z" transform="translate(-96.99 -51.06)"/><path class="cls-1" d="M168.09,124l-46.92,22.39a54,54,0,0,0,9.37,12.51l37.8-34Z" transform="translate(-96.99 -51.06)"/><path class="cls-1" d="M165,113.25l-5.34,2.68a6.83,6.83,0,0,1-1.2.48,22.57,22.57,0,0,1-6.16,1.08c-3.47,0-5.33-1.49-7.4-3.55s-4.2-4.16-10.43-4.56l-.89.39a.44.44,0,0,1-.59-.28l-.09-.31a.64.64,0,0,0-.08-.19c-.67-1.11-1,0-1,0-.12.77-1.06,1.27-1.49.23s-.83-.82-1.34.1c-.41.75-.8.23-.93,0a.88.88,0,0,1,0-.15c-.05-.29-.29-1.42-1.28-.38s-1.57.07-1.57.07c-.2-1.22-.91-.33-.91-.33-1.34,1.39-1.42-.48-1.42-.48l-.15-2.17.14-.78,11.61,1.25c7.59.44,10.41,3.22,12.67,5.46s3.76,3.73,10.54,1.7a5.11,5.11,0,0,0,.7-.28l12.6-6.33a4.28,4.28,0,0,0,.62-.38c5.73-4.19,5.45-6.28,5-9.44s-.92-7,3.11-13.12h0l6.49-10,.67.36,1.54,1.44s1.35,1.2-.51,1.36c0,0-1.09,0-.31.89,0,0,.57,1-1,1.14-1.38.11-.68,1-.49,1.19a.35.35,0,0,1,.08.13c.08.23.24.84-.57.69-1-.18-1.41,0-.9,1s-.43,1.36-1.08,1c0,0-1-.37-.61.82A.56.56,0,0,0,183,84l.18.25a.41.41,0,0,1-.15.61l-.59.3c-3.73,5.47-3.32,8.52-2.92,11.48.57,4.26.45,7.42-6.24,12.31a7.35,7.35,0,0,1-1.05.64l-3.8,1.9,6.81,23.4a47.11,47.11,0,0,1,42.84,7.36,54,54,0,1,0-98,2.1l47.32-22.58Z" transform="translate(-96.99 -51.06)"/><path class="cls-1" d="M191.14,140.62a39.11,39.11,0,0,0-13.69,1.9L186,171.78a54.22,54.22,0,0,0,28.35-22.41A39.06,39.06,0,0,0,191.14,140.62Z" transform="translate(-96.99 -51.06)"/><path class="cls-1" d="M240.26,120.33c0-38.23-31.74-69.27-71.55-69.27-40.15,0-71.72,31-71.72,69.44,0,38.58,31.56,69.8,71.72,69.8a44.77,44.77,0,0,0,4.91-.18h64.19V176.2l-31.22.42C226.58,165.4,240.26,144.18,240.26,120.33ZM168.62,176.5a55.83,55.83,0,1,1,55.83-55.83A55.89,55.89,0,0,1,168.62,176.5Z" transform="translate(-96.99 -51.06)"/></svg>